<svg xmlns="http://www.w3.org/2000/svg" width="996" height="554" fill="none" viewBox="0 0 996 554">
  <path fill="rgba(255, 255, 255, 0.2)" d="M1332.53 492.702H581.689c-36.129 0-65.974 29.531-65.974 65.278 0 35.748 29.845 65.279 65.974 65.279h750.841c36.13 0 65.98-29.531 65.98-65.279 0-35.747-29.85-65.278-65.98-65.278Z"/>
  <path fill="rgba(255, 255, 255, 0.2)" d="M569.014 242.5h780.696c175.93 0 318.87 141.437 318.87 315.513 0 174.075-142.94 315.513-318.87 315.513H569.014c-175.93 0-318.873-141.438-318.873-315.513 0-174.076 142.943-315.513 318.873-315.513Zm12.568 500.468h750.848c102.1 0 186.92-82.375 186.92-184.955 0-102.581-83.25-184.956-186.92-184.956H581.582c-103.674 0-186.927 82.375-186.927 184.956 0 102.58 83.253 184.955 186.927 184.955Z"/>
  <path fill="rgba(255, 255, 255, 0.2)" d="M1912 557.975C1912 250.234 1659.1 0 1348.08 0H564.247C253.228 0 .328 250.234.328 557.975c0 296.862 235.621 540.875 530.933 556.425L243.803 1719h444.539s186.925-407.21 202.633-436.74c2.763-4.93 5.284-9.99 7.774-15h.001c11.669-23.46 22.696-45.62 55.057-45.62 35.851 0 49.443 29.79 59.913 52.72.99 2.19 1.96 4.31 2.92 6.34 11 23.32 204.2 438.3 204.2 438.3h446.11l-287.45-604.6c296.88-15.55 532.5-259.563 532.5-556.425Zm-563.92 422.757h-177.5l285.89 604.598h-142.95l-171.22-360.58c-34.55-71.5-87.96-141.44-186.921-141.44s-152.369 69.94-186.927 141.44l-168.076 360.58H457.433L743.32 980.732H565.819c-235.621 0-425.69-189.619-425.69-421.202 0-233.138 191.639-421.202 425.69-421.202h783.831c235.62 0 425.69 189.619 425.69 421.202s-191.64 421.202-427.26 421.202Z"/>
</svg>
