<svg viewBox="0 0 49 48" fill="none" height="48" width="49" xmlns="http://www.w3.org/2000/svg">
  <g clip-path="url(#a)">
    <path d="M42.51 18.36c0-5.9-4.78-10.68-10.66-10.68h-14.8A10.67 10.67 0 0 0 6.38 18.36c0 5.88 4.45 10.34 10.05 10.65L11 40.6h8.4s3.54-7.8 3.84-8.36c.3-.56.46-1.17 1.2-1.17s.97.68 1.18 1.14l3.85 8.38h8.4l-5.42-11.58A10.68 10.68 0 0 0 42.5 18.35h.01Zm-10.66 8.07H28.5L33.9 38h-2.7l-3.23-6.9c-.67-1.36-1.68-2.69-3.53-2.69-1.86 0-2.87 1.33-3.54 2.71L17.69 38h-2.7l5.4-11.57h-3.35a8.08 8.08 0 0 1 0-16.15h14.8a8.07 8.07 0 0 1 0 16.15h.01Z" fill="currentColor"></path>
    <path d="M31.54 17.1H17.36a1.26 1.26 0 0 0 0 2.51h14.18a1.26 1.26 0 0 0 0-2.51Z" fill="currentColor"></path>
    <path d="M31.88 12.31H17.13a6.04 6.04 0 0 0 0 12.09h14.75a6.04 6.04 0 0 0 0-12.09Zm-.34 9.59H17.36a3.54 3.54 0 0 1 0-7.09h14.18a3.54 3.54 0 0 1 0 7.09Z" fill="currentColor"></path>
  </g>
  <defs>
    <clipPath id="a">
      <path d="M.33 19.2c0-6.72 0-10.08 1.31-12.65A12 12 0 0 1 6.9 1.31C9.45 0 12.8 0 19.53 0h9.6c6.72 0 10.08 0 12.65 1.3a12 12 0 0 1 5.25 5.25c1.3 2.57 1.3 5.93 1.3 12.65v9.6c0 6.72 0 10.08-1.3 12.65a12 12 0 0 1-5.25 5.24C39.21 48 35.85 48 29.13 48h-9.6c-6.72 0-10.08 0-12.64-1.3a12 12 0 0 1-5.25-5.25C.34 38.88.34 35.52.34 28.8v-9.6Z" fill="#fff"></path>
    </clipPath>
  </defs>
</svg>
