<svg xmlns="http://www.w3.org/2000/svg" width="132" height="32" fill="currentColor" viewBox="0 0 132 32" aria-label="Rockbot"><path d="m10.41 11.46.021-.083-.885-.355a7.067 7.067 0 0 0-2.592-.479 5.664 5.664 0 0 0-3.182.98c-.042.041-.105.062-.147.104l-.064-1.042H0V27.03h3.898v-8.963c0-1.167.274-2.063.801-2.751.485-.625 1.138-.896 2.065-.896.359 0 .759.062 1.18.166.085-.166.169-.333.274-.5a9.753 9.753 0 0 1 2.192-2.626Z"></path><path d="M20.734 11.69c-1.285-.751-2.676-1.147-4.172-1.147-1.517 0-2.908.375-4.194 1.146a8.448 8.448 0 0 0-3.013 3.064 8.32 8.32 0 0 0-1.117 4.19c0 1.5.38 2.918 1.117 4.19a8.29 8.29 0 0 0 3.013 3.063 8.118 8.118 0 0 0 4.194 1.146 7.956 7.956 0 0 0 4.172-1.146 8.507 8.507 0 0 0 3.035-3.064 8.207 8.207 0 0 0 1.138-4.21c0-1.5-.38-2.918-1.138-4.21a8.555 8.555 0 0 0-3.035-3.023Zm-.316 9.587a4.647 4.647 0 0 1-1.622 1.688c-.675.417-1.391.605-2.192.605-.8 0-1.517-.209-2.191-.605a4.483 4.483 0 0 1-1.623-1.688c-.4-.709-.59-1.459-.59-2.314 0-.833.19-1.584.611-2.313.4-.709.927-1.271 1.623-1.688.674-.417 1.39-.605 2.191-.605.801 0 1.517.209 2.192.605.695.417 1.222.98 1.622 1.688.4.73.611 1.48.611 2.314-.042.833-.231 1.604-.632 2.313Z"></path><path d="M37.952 21.424c-.632.709-1.286 1.25-1.96 1.626-.632.354-1.328.521-2.15.521-.78 0-1.474-.208-2.128-.604a4.498 4.498 0 0 1-1.601-1.71 4.633 4.633 0 0 1-.611-2.313c0-.855.19-1.605.59-2.314.4-.708.927-1.271 1.601-1.688.653-.417 1.349-.604 2.128-.604.843 0 1.56.166 2.171.5.674.375 1.306.917 1.939 1.605l.8.896 2.803-2.71-.716-.812c-1.939-2.189-4.278-3.294-6.996-3.294-1.497 0-2.888.376-4.152 1.147a8.233 8.233 0 0 0-2.992 3.064 8.482 8.482 0 0 0-1.096 4.21c0 1.5.358 2.918 1.096 4.19a8.078 8.078 0 0 0 2.992 3.063 8.022 8.022 0 0 0 4.151 1.147c2.698 0 5.058-1.126 6.997-3.314l.716-.813-2.803-2.71-.78.917Z"></path><path d="M69.16 11.669a8.004 8.004 0 0 0-4.151-1.126c-1.538 0-2.93.417-4.172 1.23-.148.104-.317.209-.443.313V4.02h-3.898v21.218l-7.65-7.337 7.038-7.274h-5.141l-4.278 4.418V4.02h-3.899v23.052h3.899v-5.815l6.258 5.815h7.44v-1.418c.21.167.42.313.631.48 1.244.834 2.656 1.25 4.194 1.25a8.024 8.024 0 0 0 4.151-1.146c1.265-.75 2.255-1.792 2.993-3.064a8.618 8.618 0 0 0 1.095-4.23c0-1.502-.358-2.919-1.096-4.19-.695-1.313-1.706-2.335-2.97-3.085Zm-.421 9.567a4.88 4.88 0 0 1-1.665 1.73 4.017 4.017 0 0 1-2.17.604 4.179 4.179 0 0 1-2.213-.625 4.553 4.553 0 0 1-1.686-1.71 4.499 4.499 0 0 1-.632-2.313c0-.834.21-1.563.611-2.272a4.651 4.651 0 0 1 1.686-1.688 4.206 4.206 0 0 1 4.383-.02 4.82 4.82 0 0 1 1.665 1.708 4.28 4.28 0 0 1 .61 2.272 4.266 4.266 0 0 1-.59 2.314Z"></path><path d="M86.461 11.69c-1.285-.751-2.676-1.147-4.172-1.147-1.518 0-2.909.375-4.194 1.146a8.447 8.447 0 0 0-3.013 3.064 8.321 8.321 0 0 0-1.117 4.19c0 1.5.38 2.918 1.117 4.19a8.288 8.288 0 0 0 3.013 3.063 8.118 8.118 0 0 0 4.194 1.146 7.956 7.956 0 0 0 4.172-1.146 8.507 8.507 0 0 0 3.035-3.064 8.207 8.207 0 0 0 1.137-4.21c0-1.5-.379-2.918-1.137-4.21a8.729 8.729 0 0 0-3.035-3.023Zm-.337 9.587a4.646 4.646 0 0 1-1.623 1.688c-.674.417-1.39.605-2.191.605a4.226 4.226 0 0 1-2.192-.605 4.483 4.483 0 0 1-1.622-1.688c-.4-.709-.59-1.459-.59-2.314 0-.833.19-1.584.61-2.313.4-.709.928-1.271 1.623-1.688.675-.417 1.391-.605 2.192-.605.8 0 1.517.209 2.191.605a4.49 4.49 0 0 1 1.623 1.688c.4.73.611 1.48.611 2.314-.042.833-.232 1.604-.632 2.313Z"></path><path d="M101.297 14.461v-3.856H97.23V5.832h-3.9v4.773h-3.245v3.856h3.245v9.254c0 .917.38 1.751 1.096 2.397.695.626 1.538.938 2.529.938h4.341v-3.856H97.23V14.44h4.067v.021Z"></path><path d="M132.001 11.483c0-4.127-3.393-7.483-7.565-7.483h-10.515c-4.173 0-7.566 3.356-7.566 7.483 0 3.98 3.161 7.253 7.123 7.461l-3.856 8.108h5.963s2.508-5.46 2.719-5.857c.21-.375.316-.813.843-.813.526 0 .695.48.843.793.147.312 2.739 5.877 2.739 5.877h5.985l-3.857-8.108c3.983-.208 7.144-3.48 7.144-7.461Zm-7.565 5.669h-2.381l3.835 8.108h-1.918l-2.297-4.836c-.463-.959-1.18-1.896-2.507-1.896-1.328 0-2.044.937-2.508 1.896l-2.255 4.836h-1.917l3.835-8.108h-2.381c-3.161 0-5.711-2.543-5.711-5.649 0-3.126 2.571-5.648 5.711-5.648h10.515c3.161 0 5.711 2.543 5.711 5.648 0 3.106-2.571 5.649-5.732 5.649Z"></path><path d="M124.458 7.252h-10.473c-2.36 0-4.278 1.897-4.278 4.231 0 2.335 1.918 4.231 4.278 4.231h10.473c2.36 0 4.278-1.896 4.278-4.23 0-2.335-1.918-4.232-4.278-4.232Zm-.232 6.711h-10.073a2.487 2.487 0 0 1-2.507-2.48 2.487 2.487 0 0 1 2.507-2.48h10.073a2.487 2.487 0 0 1 2.508 2.48c0 1.376-1.138 2.48-2.508 2.48Z"></path><path d="M124.227 10.607h-10.072a.885.885 0 0 0-.885.876c0 .48.4.875.885.875h10.072a.885.885 0 0 0 .885-.875c0-.48-.4-.876-.885-.876Z"></path></svg>
